<svg width="1164" height="580" viewBox="0 0 1164 580" fill="none" xmlns="http://www.w3.org/2000/svg">
<path d="M309 580C281.386 580 259 557.614 259 530L259 50C259 22.3858 281.386 2.66948e-07 309 5.96244e-07L1166 1.08159e-05L1166 580L309 580Z" fill="#E7F0FD"/>
<path d="M7 427.5C7 429.433 5.433 431 3.5 431C1.567 431 0 429.433 0 427.5C0 425.567 1.567 424 3.5 424C5.433 424 7 425.567 7 427.5Z" fill="#E7F0FD"/>
<path d="M7 439.5C7 441.433 5.433 443 3.5 443C1.567 443 0 441.433 0 439.5C0 437.567 1.567 436 3.5 436C5.433 436 7 437.567 7 439.5Z" fill="#E7F0FD"/>
<path d="M7 451.5C7 453.433 5.433 455 3.5 455C1.567 455 0 453.433 0 451.5C0 449.567 1.567 448 3.5 448C5.433 448 7 449.567 7 451.5Z" fill="#E7F0FD"/>
<path d="M7 463.5C7 465.433 5.433 467 3.5 467C1.567 467 0 465.433 0 463.5C0 461.567 1.567 460 3.5 460C5.433 460 7 461.567 7 463.5Z" fill="#E7F0FD"/>
<path d="M7 475.5C7 477.433 5.433 479 3.5 479C1.567 479 0 477.433 0 475.5C0 473.567 1.567 472 3.5 472C5.433 472 7 473.567 7 475.5Z" fill="#E7F0FD"/>
<path d="M19 427.5C19 429.433 17.433 431 15.5 431C13.567 431 12 429.433 12 427.5C12 425.567 13.567 424 15.5 424C17.433 424 19 425.567 19 427.5Z" fill="#E7F0FD"/>
<path d="M19 439.5C19 441.433 17.433 443 15.5 443C13.567 443 12 441.433 12 439.5C12 437.567 13.567 436 15.5 436C17.433 436 19 437.567 19 439.5Z" fill="#E7F0FD"/>
<path d="M19 451.5C19 453.433 17.433 455 15.5 455C13.567 455 12 453.433 12 451.5C12 449.567 13.567 448 15.5 448C17.433 448 19 449.567 19 451.5Z" fill="#E7F0FD"/>
<path d="M19 463.5C19 465.433 17.433 467 15.5 467C13.567 467 12 465.433 12 463.5C12 461.567 13.567 460 15.5 460C17.433 460 19 461.567 19 463.5Z" fill="#E7F0FD"/>
<path d="M19 475.5C19 477.433 17.433 479 15.5 479C13.567 479 12 477.433 12 475.5C12 473.567 13.567 472 15.5 472C17.433 472 19 473.567 19 475.5Z" fill="#E7F0FD"/>
<path d="M31 427.5C31 429.433 29.433 431 27.5 431C25.567 431 24 429.433 24 427.5C24 425.567 25.567 424 27.5 424C29.433 424 31 425.567 31 427.5Z" fill="#E7F0FD"/>
<path d="M31 439.5C31 441.433 29.433 443 27.5 443C25.567 443 24 441.433 24 439.5C24 437.567 25.567 436 27.5 436C29.433 436 31 437.567 31 439.5Z" fill="#E7F0FD"/>
<path d="M31 451.5C31 453.433 29.433 455 27.5 455C25.567 455 24 453.433 24 451.5C24 449.567 25.567 448 27.5 448C29.433 448 31 449.567 31 451.5Z" fill="#E7F0FD"/>
<path d="M31 463.5C31 465.433 29.433 467 27.5 467C25.567 467 24 465.433 24 463.5C24 461.567 25.567 460 27.5 460C29.433 460 31 461.567 31 463.5Z" fill="#E7F0FD"/>
<path d="M31 475.5C31 477.433 29.433 479 27.5 479C25.567 479 24 477.433 24 475.5C24 473.567 25.567 472 27.5 472C29.433 472 31 473.567 31 475.5Z" fill="#E7F0FD"/>
<path d="M43 427.5C43 429.433 41.433 431 39.5 431C37.567 431 36 429.433 36 427.5C36 425.567 37.567 424 39.5 424C41.433 424 43 425.567 43 427.5Z" fill="#E7F0FD"/>
<path d="M43 439.5C43 441.433 41.433 443 39.5 443C37.567 443 36 441.433 36 439.5C36 437.567 37.567 436 39.5 436C41.433 436 43 437.567 43 439.5Z" fill="#E7F0FD"/>
<path d="M43 451.5C43 453.433 41.433 455 39.5 455C37.567 455 36 453.433 36 451.5C36 449.567 37.567 448 39.5 448C41.433 448 43 449.567 43 451.5Z" fill="#E7F0FD"/>
<path d="M43 463.5C43 465.433 41.433 467 39.5 467C37.567 467 36 465.433 36 463.5C36 461.567 37.567 460 39.5 460C41.433 460 43 461.567 43 463.5Z" fill="#E7F0FD"/>
<path d="M43 475.5C43 477.433 41.433 479 39.5 479C37.567 479 36 477.433 36 475.5C36 473.567 37.567 472 39.5 472C41.433 472 43 473.567 43 475.5Z" fill="#E7F0FD"/>
<path d="M55 427.5C55 429.433 53.433 431 51.5 431C49.567 431 48 429.433 48 427.5C48 425.567 49.567 424 51.5 424C53.433 424 55 425.567 55 427.5Z" fill="#E7F0FD"/>
<path d="M55 439.5C55 441.433 53.433 443 51.5 443C49.567 443 48 441.433 48 439.5C48 437.567 49.567 436 51.5 436C53.433 436 55 437.567 55 439.5Z" fill="#E7F0FD"/>
<path d="M55 451.5C55 453.433 53.433 455 51.5 455C49.567 455 48 453.433 48 451.5C48 449.567 49.567 448 51.5 448C53.433 448 55 449.567 55 451.5Z" fill="#E7F0FD"/>
<path d="M55 463.5C55 465.433 53.433 467 51.5 467C49.567 467 48 465.433 48 463.5C48 461.567 49.567 460 51.5 460C53.433 460 55 461.567 55 463.5Z" fill="#E7F0FD"/>
<path d="M55 475.5C55 477.433 53.433 479 51.5 479C49.567 479 48 477.433 48 475.5C48 473.567 49.567 472 51.5 472C53.433 472 55 473.567 55 475.5Z" fill="#E7F0FD"/>
<path d="M816 379.774C822.188 376.201 829.812 376.201 836 379.774L875.756 402.726C881.944 406.299 885.756 412.902 885.756 420.047V465.953C885.756 473.098 881.944 479.701 875.756 483.273L836 506.227C829.812 509.799 822.188 509.799 816 506.227L776.244 483.274C770.056 479.701 766.244 473.098 766.244 465.953V420.047C766.244 412.902 770.056 406.299 776.244 402.726L816 379.774Z" fill="white"/>
</svg>
