<svg width="51" height="43" viewBox="0 0 51 43" fill="none" xmlns="http://www.w3.org/2000/svg">
<path d="M46.9352 8.85816H38.0025V6.41927H36.3766V3.16741C36.3766 1.81908 35.286 0.728516 33.9377 0.728516H17.6982C16.3499 0.728516 15.2593 1.81908 15.2593 3.16741V6.41927H13.6334V8.85816H4.70069C2.46008 8.85816 0.635864 10.6824 0.635864 12.923V38.918C0.635864 41.1586 2.46008 42.9828 4.70069 42.9828H46.9352C49.1758 42.9828 51 41.1586 51 38.918V12.923C51 10.6824 49.1758 8.85816 46.9352 8.85816ZM36.3766 8.85816H34.7506V8.0452H36.3766V8.85816ZM16.8852 3.16741C16.8852 2.72127 17.2521 2.35444 17.6982 2.35444H33.9476C34.3937 2.35444 34.7605 2.72127 34.7605 3.16741V6.41927H33.1346V8.85816H18.5112V6.41927H16.8852V3.16741ZM15.2593 8.0452H16.8852V8.85816H15.2593V8.0452ZM49.3741 38.918C49.3741 40.2664 48.2835 41.3569 46.9352 41.3569H4.70069C3.35236 41.3569 2.26179 40.2664 2.26179 38.918V25.0183C3.29287 26.0791 4.73043 26.7335 6.32662 26.7335H22.576V31.6113H29.0698V26.7335H45.3192C46.9054 26.7335 48.343 26.0791 49.384 25.0183V38.918H49.3741ZM24.192 26.7335H27.4439V29.9853H24.192V26.7335ZM45.3093 25.1075H29.0698H22.576H6.32662C4.08601 25.1075 2.26179 23.2833 2.26179 21.0427V12.923C2.26179 11.5747 3.35236 10.4841 4.70069 10.4841H13.6334H18.5112H33.1346H38.0124H46.9352C48.2835 10.4841 49.3741 11.5747 49.3741 12.923V21.0427C49.3741 23.2833 47.5499 25.1075 45.3093 25.1075Z" fill="#37517E"/>
<path d="M26.6309 16.9775H25.005V18.6035H26.6309V16.9775Z" fill="#37517E"/>
<path d="M29.8828 16.9775H28.2568V18.6035H29.8828V16.9775Z" fill="#37517E"/>
<path d="M23.3791 16.9775H21.7532V18.6035H23.3791V16.9775Z" fill="#37517E"/>
</svg>
