<svg width="42" height="58" viewBox="0 0 42 58" fill="none" xmlns="http://www.w3.org/2000/svg">
<path d="M18.4224 0C16.9657 0 15.617 0.470696 14.6765 1.40972C14.0281 2.05716 13.692 2.93002 13.4883 3.86667H10.689C9.64027 3.86667 8.75571 4.75122 8.75571 5.8V7.73333H5.53349C2.6996 7.73333 0.37793 10.055 0.37793 12.8889V52.8444C0.37793 55.6783 2.69961 58 5.53349 58H36.4668C39.3007 58 41.6224 55.6783 41.6224 52.8444V12.8889C41.6224 10.055 39.3007 7.73333 36.4668 7.73333H33.2446V5.8C33.2446 4.75122 32.36 3.86667 31.3113 3.86667H28.512C28.3065 2.93029 27.9517 2.05877 27.3036 1.40972C26.3662 0.470799 25.0346 0 23.5779 0H18.4224ZM18.4224 2.57778H23.5779C24.4931 2.57778 25.0903 2.84092 25.4911 3.24236C25.8919 3.64381 26.1525 4.23792 26.1557 5.15556C26.1557 5.49738 26.2915 5.82519 26.5333 6.0669C26.775 6.30861 27.1028 6.44441 27.4446 6.44444H30.6668V11.6H11.3335V6.44444H14.5557C14.7267 6.44445 14.8959 6.41044 15.0536 6.34441C15.2113 6.27837 15.3543 6.18163 15.4742 6.05981C15.5942 5.93798 15.6887 5.79352 15.7523 5.63482C15.8159 5.47612 15.8473 5.30636 15.8446 5.13542C15.8414 4.2227 16.1072 3.6437 16.5092 3.24236C16.9111 2.84102 17.5072 2.57778 18.4224 2.57778ZM5.53349 10.3111H8.75571V12.2444C8.75571 13.2932 9.64027 14.1778 10.689 14.1778H31.3113C32.36 14.1778 33.2446 13.2932 33.2446 12.2444V10.3111H36.4668C37.9172 10.3111 39.0446 11.4385 39.0446 12.8889V52.8444C39.0446 54.2948 37.9172 55.4222 36.4668 55.4222H5.53349C4.08311 55.4222 2.95571 54.2948 2.95571 52.8444V12.8889C2.95571 11.4385 4.08311 10.3111 5.53349 10.3111ZM16.9724 18.0243C16.6883 18.0653 16.4261 18.2 16.2272 18.4069L10.689 23.9451L7.72862 20.9847C7.60914 20.8618 7.46635 20.764 7.3086 20.697C7.15086 20.6299 6.98133 20.595 6.80993 20.5943C6.63853 20.5936 6.46871 20.627 6.3104 20.6927C6.15208 20.7584 6.00846 20.855 5.88794 20.9769C5.76741 21.0987 5.6724 21.2434 5.60846 21.4024C5.54452 21.5615 5.51294 21.7317 5.51557 21.903C5.51819 22.0744 5.55497 22.2436 5.62375 22.4005C5.69252 22.5575 5.79192 22.6992 5.91612 22.8174L9.78279 26.684C10.0241 26.9226 10.3497 27.0564 10.689 27.0564C11.0284 27.0564 11.354 26.9226 11.5953 26.684L18.0397 20.2396C18.2396 20.0519 18.3744 19.8053 18.4246 19.5357C18.4747 19.2661 18.4376 18.9875 18.3185 18.7405C18.1995 18.4934 18.0048 18.2908 17.7627 18.162C17.5206 18.0332 17.2438 17.985 16.9724 18.0243ZM21.0002 22.5556C20.2883 22.5556 19.7113 23.1326 19.7113 23.8444C19.7113 24.5563 20.2883 25.1333 21.0002 25.1333H35.1779C35.8898 25.1333 36.4668 24.5563 36.4668 23.8444C36.4668 23.1326 35.8898 22.5556 35.1779 22.5556H21.0002ZM16.9724 29.6243C16.6883 29.6653 16.4261 29.8 16.2272 30.0069L10.689 35.5451L7.72862 32.5847C7.60914 32.4618 7.46635 32.364 7.3086 32.297C7.15086 32.2299 6.98133 32.195 6.80993 32.1943C6.63853 32.1936 6.46871 32.227 6.3104 32.2927C6.15208 32.3584 6.00846 32.455 5.88794 32.5769C5.76741 32.6987 5.6724 32.8434 5.60846 33.0024C5.54452 33.1615 5.51294 33.3317 5.51557 33.503C5.51819 33.6744 5.55497 33.8436 5.62375 34.0005C5.69252 34.1575 5.79192 34.2992 5.91612 34.4174L9.78279 38.284C10.0241 38.5226 10.3497 38.6564 10.689 38.6564C11.0284 38.6564 11.354 38.5226 11.5953 38.284L18.0397 31.8396C18.2396 31.6519 18.3744 31.4053 18.4246 31.1357C18.4747 30.8661 18.4376 30.5875 18.3185 30.3405C18.1995 30.0934 18.0048 29.8908 17.7627 29.762C17.5206 29.6332 17.2438 29.585 16.9724 29.6243ZM21.0002 34.1556C20.2883 34.1556 19.7113 34.7326 19.7113 35.4444C19.7113 36.1563 20.2883 36.7333 21.0002 36.7333H35.1779C35.8898 36.7333 36.4668 36.1563 36.4668 35.4444C36.4668 34.7326 35.8898 34.1556 35.1779 34.1556H21.0002ZM16.9724 42.5132C16.6883 42.5542 16.4261 42.6889 16.2272 42.8958L10.689 48.434L7.72862 45.4736C7.60914 45.3507 7.46635 45.2529 7.3086 45.1859C7.15086 45.1188 6.98133 45.0839 6.80993 45.0832C6.63853 45.0825 6.46871 45.1159 6.3104 45.1816C6.15208 45.2473 6.00846 45.3439 5.88794 45.4658C5.76741 45.5876 5.6724 45.7323 5.60846 45.8913C5.54452 46.0504 5.51294 46.2205 5.51557 46.3919C5.51819 46.5633 5.55497 46.7324 5.62375 46.8894C5.69252 47.0464 5.79192 47.1881 5.91612 47.3063L9.78279 51.1729C10.0241 51.4115 10.3497 51.5453 10.689 51.5453C11.0284 51.5453 11.354 51.4115 11.5953 51.1729L18.0397 44.7285C18.2396 44.5407 18.3744 44.2942 18.4246 44.0246C18.4747 43.755 18.4376 43.4764 18.3185 43.2294C18.1995 42.9823 18.0048 42.7797 17.7627 42.6509C17.5206 42.5221 17.2438 42.4739 16.9724 42.5132ZM21.0002 47.0444C20.2883 47.0444 19.7113 47.6215 19.7113 48.3333C19.7113 49.0452 20.2883 49.6222 21.0002 49.6222H35.1779C35.8898 49.6222 36.4668 49.0452 36.4668 48.3333C36.4668 47.6215 35.8898 47.0444 35.1779 47.0444H21.0002Z" fill="#37517E"/>
</svg>
