<svg xmlns="http://www.w3.org/2000/svg" viewBox="0 0 949.85 151.58"><defs><style>.cls-1{fill:#1c65e3;}</style></defs><g id="Layer_2" data-name="Layer 2"><g id="Layer_1-2" data-name="Layer 1"><path class="cls-1" d="M254.44,100.32A51,51,0,0,0,249.06,77a44.17,44.17,0,0,0-15.54-17.31q-10.19-6.63-25-6.64A48.73,48.73,0,0,0,188.47,57a42.13,42.13,0,0,0-14.7,10.67,48,48,0,0,0-9,15.22,51.17,51.17,0,0,0-3.1,17.73V104a50.18,50.18,0,0,0,3.1,17.39,48.25,48.25,0,0,0,9.08,15.3,42.88,42.88,0,0,0,15,10.84,50.23,50.23,0,0,0,20.76,4,49.21,49.21,0,0,0,20.5-4,40,40,0,0,0,14.79-11.26,38.94,38.94,0,0,0,7.9-16.47H228.05a14.81,14.81,0,0,1-6.38,7.06q-4.71,2.85-12.1,2.85-8.07,0-13.11-3.36a19.35,19.35,0,0,1-7.4-9.49,35,35,0,0,1-1.88-7.48h67.26ZM189.23,87.46a19.73,19.73,0,0,1,7.39-9.33,21.39,21.39,0,0,1,11.94-3.19,20.19,20.19,0,0,1,11.51,3.11,19,19,0,0,1,7,9,31.69,31.69,0,0,1,1.85,7.06H187.37A31.69,31.69,0,0,1,189.23,87.46Z"/><path class="cls-1" d="M314.89,77.8v70.59h25V77.8h23.86V58.13H339.93V53.76a8.76,8.76,0,0,1,9.58-9.58h12.94V24H350.69Q333,24,324,31.75t-9.07,23.7v2.68"/><path class="cls-1" d="M417.31,151.25q-19.67,0-30.75-8.07t-11.77-22.69h23.87q.66,4.37,5.29,7.81t13.87,3.45a24.87,24.87,0,0,0,11.68-2.44c3.08-1.62,4.62-4,4.62-7a7.51,7.51,0,0,0-3.53-6.47q-3.52-2.45-12.61-3.45l-7.22-.67q-16.63-1.68-25-9.24a25,25,0,0,1-8.32-19.33q0-9.75,4.87-16.31A29.8,29.8,0,0,1,395.88,57a54.3,54.3,0,0,1,19.75-3.36q17.82,0,28.74,7.81T455.8,84H431.93a11.57,11.57,0,0,0-4.7-7.65q-4-3.11-11.93-3.11-6.23,0-9.92,2.35a7.24,7.24,0,0,0-3.7,6.39,6.53,6.53,0,0,0,3.2,5.88q3.18,2,10.42,2.86l7.22.67q17,1.86,26.39,9.41t9.41,20.34a26.24,26.24,0,0,1-5,16.05A31.51,31.51,0,0,1,439,147.63,59.35,59.35,0,0,1,417.31,151.25Z"/><path class="cls-1" d="M529.53,76V56.29H502.64V31.41h-25V42.34a14,14,0,0,1-14,13.95h0V76h14v36.47q0,14,3.95,22.1a22.91,22.91,0,0,0,12.52,11.6q8.58,3.45,22.52,3.45h12.94V126.88H515.92q-6.39,0-9.83-3.45t-3.45-10V76Z"/><path class="cls-1" d="M621.1,71a30.58,30.58,0,0,0-14.71-12.18q-9.66-4-23.78-4-4.87,0-10.42.17t-10.76.51c-3.47.22-6.5.44-9.07.67V78.81q5.21-.34,11.59-.68t12.44-.5q6-.16,9.75-.17,7.4,0,10.76,3.53c2.24,2.36,3.36,5.88,3.36,10.59v.34H583.62A68.86,68.86,0,0,0,561.94,95q-9.42,3.1-14.63,9.58t-5.21,16.55A29,29,0,0,0,546.31,137,27.15,27.15,0,0,0,558,147.21a40.21,40.21,0,0,0,17.39,3.53q9.58,0,16.22-3.53A25.72,25.72,0,0,0,602,137.13a32.15,32.15,0,0,0,2.77-6.45v17.71h21.35V91.92Q626.14,79.14,621.1,71Zm-29.5,59.5a19.89,19.89,0,0,1-8.15,1.6q-7.07,0-10.84-3.45a11.58,11.58,0,0,1-3.78-9,12,12,0,0,1,3.78-9.33q3.78-3.43,10.84-3.44h16.81v7.39q-.35,6.9-2.69,10.76A13.22,13.22,0,0,1,591.6,130.49Z"/><path class="cls-1" d="M694.16,55.11q-15.79,0-24.12,10.59l-.12.16a4.27,4.27,0,0,1-7.69-2.56v-7H640.88v92.1h26.9V101.5q0-11.27,6.05-17.23t17.14-6h6.72V55.11Z"/><path class="cls-1" d="M776.91,76V56.29H750V31.41H725V42.34a14,14,0,0,1-14,13.95h0V76h14v36.47q0,14,3.95,22.1a22.91,22.91,0,0,0,12.52,11.6q8.58,3.45,22.52,3.45h12.94V126.88H763.3q-6.39,0-9.83-3.45t-3.45-10V76Z"/><path class="cls-1" d="M879.42,100.32A51.09,51.09,0,0,0,874.05,77,44.12,44.12,0,0,0,858.5,59.73q-10.17-6.63-25-6.64A48.69,48.69,0,0,0,813.46,57a42.08,42.08,0,0,0-14.71,10.67,48,48,0,0,0-9,15.22,50.94,50.94,0,0,0-3.11,17.73V104a50,50,0,0,0,3.11,17.39,48.23,48.23,0,0,0,9.07,15.3,43,43,0,0,0,15,10.84,50.23,50.23,0,0,0,20.76,4,49.21,49.21,0,0,0,20.5-4,40,40,0,0,0,14.79-11.26,38.82,38.82,0,0,0,7.9-16.47H853a14.78,14.78,0,0,1-6.39,7.06q-4.71,2.85-12.1,2.85-8.07,0-13.11-3.36a19.41,19.41,0,0,1-7.4-9.49,35,35,0,0,1-1.88-7.48h67.26ZM814.21,87.46a19.75,19.75,0,0,1,7.4-9.33,21.36,21.36,0,0,1,11.93-3.19,20.19,20.19,0,0,1,11.51,3.11,19,19,0,0,1,7,9,31.69,31.69,0,0,1,1.85,7.06H812.36A31.69,31.69,0,0,1,814.21,87.46Z"/><path class="cls-1" d="M946.32,55.11q-15.8,0-24.12,10.59l-.12.16a4.27,4.27,0,0,1-7.69-2.56v-7H893v92.1h26.89V101.5q0-11.27,6.05-17.23t17.15-6h6.72V55.11Z"/><polygon class="cls-1" points="269.2 25.7 269.2 45.53 269.2 67.72 269.2 148.39 296.25 148.39 296.25 45.53 296.25 25.7 269.2 25.7"/><path class="cls-1" d="M121.61,76.37q-4-3.11-11.93-3.11-6.23,0-9.92,2.35A7.25,7.25,0,0,0,96.07,82a6.52,6.52,0,0,0,3.19,5.88q3.19,2,10.42,2.86l7.23.67Q131.9,93,141,99.14L145,84H126.32A11.6,11.6,0,0,0,121.61,76.37Z"/><path class="cls-1" d="M135.57.72,15.18,33A20.46,20.46,0,0,0,6,67.22L72.69,133.9a30.61,30.61,0,0,1-3.51-13.41H93q.67,4.37,5.3,7.81t13.86,3.45a24.82,24.82,0,0,0,11.68-2.44c3.08-1.62,4.62-4,4.62-7a7.5,7.5,0,0,0-3.52-6.47q-3.54-2.45-12.61-3.45l-7.23-.67q-16.64-1.68-25-9.24a25,25,0,0,1-8.32-19.33q0-9.75,4.88-16.31A29.8,29.8,0,0,1,90.27,57,54.26,54.26,0,0,1,110,53.6q17.81,0,28.74,7.81A26,26,0,0,1,148,73l12.65-47.22A20.46,20.46,0,0,0,135.57.72Z"/></g></g></svg>