<svg width="140" height="22" viewBox="0 0 140 22" fill="none" xmlns="http://www.w3.org/2000/svg">
<path d="M37.5022 14.5602C37.5142 13.3861 37.2424 12.2259 36.7092 11.1756C36.1874 10.1517 35.3965 9.28416 34.4188 8.66328C33.4175 8.02177 32.1892 7.70054 30.734 7.69957C29.7188 7.68284 28.7116 7.87824 27.7788 8.27286C26.9508 8.62779 26.2114 9.15628 25.6121 9.82148C25.0348 10.4706 24.585 11.2196 24.2856 12.0305C23.9801 12.8549 23.8254 13.7262 23.8287 14.6038V15.0943C23.8282 15.9556 23.9829 16.8102 24.2856 17.6183C24.588 18.4338 25.0419 19.1868 25.6239 19.8389C26.2358 20.5155 26.9903 21.0525 27.8348 21.4122C28.8013 21.8173 29.8444 22.0152 30.8946 21.9927C31.9324 22.0144 32.9628 21.8164 33.9161 21.4122C34.763 21.0436 35.5098 20.4837 36.0961 19.7779C36.6712 19.0833 37.0703 18.264 37.2605 17.3875H33.6125C33.4221 17.8216 33.0915 18.1818 32.6722 18.4122C32.2094 18.688 31.6149 18.8258 30.8887 18.8258C30.0958 18.8258 29.4517 18.6633 28.9564 18.3382C28.4534 18.0049 28.0714 17.5224 27.8657 16.9608C27.733 16.6101 27.6401 16.246 27.5886 15.8752H37.5022V14.5602ZM27.8908 12.6938C28.1036 12.1427 28.484 11.6698 28.98 11.3396C29.5076 11.0181 30.1198 10.8571 30.7399 10.8766C31.3386 10.8555 31.9299 11.0128 32.4363 11.328C32.9079 11.6492 33.2681 12.1051 33.4681 12.6343C33.5987 12.9643 33.6902 13.3082 33.7408 13.6589H27.6166C27.672 13.3283 27.764 13.0047 27.8908 12.6938Z" fill="#7E8BA2"/>
<path d="M46.4121 11.2917V21.537H50.0969V11.2917H53.6137V8.43688H50.1028V7.80263C50.084 7.61545 50.1076 7.42649 50.1719 7.24938C50.2362 7.07227 50.3396 6.91141 50.4747 6.77841C50.6098 6.64541 50.7731 6.54358 50.953 6.48025C51.1328 6.41692 51.3247 6.39368 51.5148 6.4122H53.4221V3.48332H51.6887C49.9505 3.48332 48.6392 3.85826 47.7548 4.60814C46.8705 5.35802 46.4249 6.50461 46.418 8.04791V8.43688" fill="#7E8BA2"/>
<path d="M61.5083 21.9521C59.5755 21.9521 58.0647 21.5617 56.976 20.7809C55.8873 20 55.309 18.9023 55.2412 17.4877H58.7594C58.8243 17.9105 59.0842 18.2884 59.5391 18.6212C59.9941 18.9541 60.6755 19.121 61.5835 19.1219C62.178 19.1432 62.7688 19.0217 63.305 18.7678C63.759 18.5327 63.9859 18.1872 63.9859 17.7518C63.9885 17.5645 63.942 17.3796 63.8508 17.2151C63.7597 17.0507 63.627 16.9121 63.4657 16.8128C63.1198 16.5757 62.5002 16.4088 61.6071 16.3121L60.5429 16.2148C58.9088 16.0523 57.6805 15.6052 56.8581 14.8737C56.4589 14.522 56.1423 14.0888 55.9306 13.6042C55.7188 13.1197 55.6168 12.5955 55.6318 12.0682C55.6318 11.1248 55.8711 10.3358 56.3496 9.70103C56.8638 9.04635 57.558 8.55068 58.3497 8.27288C59.2809 7.93394 60.268 7.76857 61.2607 7.78521C63.0117 7.78521 64.4237 8.16306 65.4967 8.91874C66.5697 9.67443 67.1313 10.7654 67.1814 12.1916H63.6632C63.6286 11.9704 63.5496 11.7583 63.4306 11.5676C63.3117 11.3769 63.1552 11.2116 62.9704 11.0813C62.5774 10.7804 61.9912 10.6299 61.212 10.6299C60.5999 10.6299 60.1125 10.7436 59.7499 10.971C59.5829 11.0632 59.4441 11.1979 59.3481 11.3611C59.2522 11.5243 59.2026 11.7099 59.2046 11.8984C59.1977 12.0693 59.2378 12.2389 59.3209 12.3892C59.4039 12.5394 59.5267 12.6647 59.6762 12.7518C59.9887 12.9454 60.5006 13.0837 61.212 13.1669L62.2762 13.2642C63.9466 13.4441 65.2432 13.8994 66.1659 14.6299C67.0885 15.3604 67.5509 16.3445 67.5528 17.582C67.5732 18.4171 67.3143 19.2356 66.8159 19.9115C66.274 20.605 65.5415 21.1309 64.7052 21.4267C63.6821 21.7964 62.5979 21.9746 61.5083 21.9521Z" fill="#7E8BA2"/>
<path d="M78.0486 11.0305V8.16982H74.0852V4.55879H70.4004V6.14515C70.3985 6.68279 70.1802 7.19776 69.7934 7.57725C69.4066 7.95674 68.8829 8.16983 68.3369 8.16982V11.0305H70.4004V16.3237C70.4004 17.6783 70.5945 18.7475 70.9826 19.5312C71.3545 20.3055 72.0156 20.9086 72.8279 21.2148C73.671 21.5486 74.7775 21.7155 76.1472 21.7155H78.0545V18.4151H76.0426C75.4147 18.4151 74.9317 18.2482 74.5937 17.9144C74.2557 17.5806 74.0862 17.0968 74.0852 16.463V11.0305H78.0486Z" fill="#7E8BA2"/>
<path d="M91.545 10.3048C91.0325 9.50272 90.2727 8.88324 89.3769 8.53702C88.4277 8.14998 87.2593 7.95647 85.8719 7.95647C85.3934 7.95647 84.8814 7.96469 84.3361 7.98114C83.7907 7.99759 83.2621 8.02226 82.7501 8.05516C82.2387 8.08709 81.7921 8.11902 81.4133 8.1524V11.4383C81.9252 11.4054 82.4947 11.3725 83.1216 11.3396C83.7485 11.3067 84.3597 11.2825 84.9551 11.2671C85.5447 11.2516 86.0237 11.2434 86.3922 11.2424C87.1193 11.2424 87.648 11.4132 87.9781 11.7547C88.3083 12.0972 88.4733 12.6081 88.4733 13.2917V13.3411H86.0207C84.9382 13.3213 83.8594 13.4722 82.8253 13.7881C81.8997 14.0881 81.1809 14.5515 80.669 15.1785C80.157 15.8055 79.9011 16.6062 79.9011 17.5806C79.8782 18.3912 80.0937 19.191 80.5216 19.8839C80.9372 20.5324 81.536 21.0474 82.2446 21.3657C83.0496 21.7223 83.9253 21.8974 84.8077 21.8781C85.7491 21.8781 86.546 21.7073 87.1984 21.3657C87.8406 21.0325 88.3721 20.5247 88.7298 19.9028C88.9002 19.6063 89.0371 19.2924 89.1381 18.9666V21.537H92.2849V13.3411C92.2868 12.1045 92.0402 11.0924 91.545 10.3048ZM87.1969 18.9405C86.8176 19.1003 86.4082 19.1794 85.9957 19.1727C85.301 19.1727 84.7684 19.0058 84.398 18.672C84.2141 18.5073 84.069 18.3051 83.9728 18.0795C83.8766 17.8539 83.8315 17.6103 83.8408 17.3658C83.8286 17.1138 83.872 16.8622 83.9682 16.6284C84.0644 16.3946 84.2111 16.1841 84.398 16.0116C84.7694 15.6797 85.302 15.5133 85.9957 15.5123H88.4733V16.5849C88.439 17.2525 88.3068 17.7731 88.0769 18.1466C87.8749 18.4948 87.5671 18.7719 87.1969 18.939V18.9405Z" fill="#7E8BA2"/>
<path d="M102.313 7.99857C100.762 7.99857 99.5769 8.5109 98.7584 9.53558L98.7407 9.5588C98.6615 9.66308 98.551 9.74016 98.4249 9.7791C98.2987 9.81804 98.1633 9.81687 98.0378 9.77574C97.9124 9.73462 97.8033 9.65564 97.726 9.55C97.6487 9.44436 97.6072 9.31744 97.6073 9.18724V8.17128H94.4604V21.5385H98.4253V14.7315C98.4253 13.641 98.7225 12.8075 99.317 12.2308C99.9115 11.6541 100.754 11.3638 101.843 11.36H102.834V7.99857H102.313Z" fill="#7E8BA2"/>
<path d="M114.51 11.0305V8.16982H110.544V4.55879H106.859V6.14515C106.857 6.68279 106.639 7.19776 106.252 7.57725C105.865 7.95674 105.341 8.16983 104.795 8.16982V11.0305H106.859V16.3237C106.859 17.6783 107.053 18.7475 107.441 19.5312C107.813 20.3055 108.474 20.9086 109.286 21.2148C110.13 21.5486 111.236 21.7155 112.606 21.7155H114.513V18.4151H112.504C111.876 18.4151 111.393 18.2482 111.055 17.9144C110.717 17.5806 110.548 17.0968 110.547 16.463V11.0305H114.51Z" fill="#7E8BA2"/>
<path d="M129.619 14.5603C129.631 13.3863 129.36 12.2262 128.828 11.1756C128.305 10.1535 127.514 9.28792 126.536 8.66911C125.537 8.0276 124.308 7.70636 122.851 7.70539C121.837 7.68686 120.83 7.88028 119.897 8.27288C119.069 8.62743 118.329 9.15596 117.729 9.8215C117.152 10.4706 116.702 11.2196 116.403 12.0305C116.096 12.8547 115.941 13.726 115.944 14.6038V15.0944C115.944 15.9558 116.099 16.8105 116.403 17.6183C116.705 18.4337 117.158 19.1867 117.74 19.8389C118.352 20.5152 119.106 21.052 119.951 21.4122C120.917 21.8173 121.96 22.0152 123.01 21.9928C124.048 22.0144 125.078 21.8164 126.032 21.4122C126.879 21.0436 127.626 20.4837 128.212 19.778C128.787 19.0837 129.187 18.2642 129.376 17.3875H125.725C125.535 17.8221 125.204 18.1823 124.783 18.4122C124.321 18.688 123.726 18.8259 123 18.8259C122.207 18.8259 121.563 18.6633 121.068 18.3382C120.565 18.0045 120.183 17.5221 119.977 16.9608C119.844 16.6101 119.751 16.246 119.7 15.8752H129.613L129.619 14.5603ZM120.008 12.6938C120.221 12.1427 120.602 11.6698 121.099 11.3396C121.626 11.0182 122.237 10.8571 122.857 10.8767C123.456 10.8555 124.047 11.0128 124.554 11.328C125.025 11.6492 125.385 12.1051 125.585 12.6343C125.716 12.9644 125.807 13.3082 125.858 13.6589H119.735C119.79 13.3284 119.882 13.0048 120.008 12.6938Z" fill="#7E8BA2"/>
<path d="M139.48 7.99857C137.927 7.99857 136.742 8.5109 135.925 9.53558L135.907 9.5588C135.828 9.66308 135.718 9.74016 135.591 9.7791C135.465 9.81804 135.33 9.81687 135.204 9.77574C135.079 9.73462 134.97 9.65564 134.893 9.55C134.815 9.44436 134.774 9.31744 134.774 9.18724V8.17128H131.621V21.5385H135.584V14.7315C135.584 13.641 135.882 12.8075 136.476 12.2308C137.071 11.6541 137.913 11.3638 139.004 11.36H139.994V7.99857H139.48Z" fill="#7E8BA2"/>
<path d="M39.6777 3.73006V6.60814V9.82875V21.537H43.6647V6.60814V3.73006H39.6777Z" fill="#7E8BA2"/>
<path d="M17.9244 11.0842C17.5314 10.7833 16.9452 10.6328 16.166 10.6328C15.5538 10.6328 15.0665 10.7465 14.7039 10.9739C14.5372 11.0664 14.3988 11.2012 14.3032 11.3644C14.2075 11.5275 14.1581 11.7129 14.16 11.9013C14.1528 12.0721 14.1927 12.2417 14.2755 12.3919C14.3583 12.5422 14.4808 12.6676 14.6302 12.7547C14.9436 12.9482 15.4556 13.0866 16.166 13.1698L17.2317 13.2671C18.7046 13.4209 19.8881 13.7949 20.7823 14.389L21.3719 12.1916H18.6186C18.5833 11.9709 18.5037 11.7593 18.3846 11.5692C18.2654 11.379 18.1089 11.2142 17.9244 11.0842Z" fill="#7E8BA2"/>
<path d="M19.9823 0.104832L2.2378 4.78988C1.72669 4.92479 1.26062 5.18975 0.886408 5.55817C0.512197 5.92658 0.243021 6.38547 0.105914 6.88874C-0.0311922 7.39201 -0.0314018 7.92195 0.105307 8.42533C0.242015 8.92871 0.510829 9.3878 0.884748 9.7565L10.7143 19.4343C10.393 18.833 10.216 18.1672 10.197 17.488H13.7078C13.7737 17.9108 14.0341 18.2887 14.489 18.6215C14.944 18.9544 15.6249 19.1213 16.5319 19.1222C17.1264 19.1438 17.7173 19.0222 18.2534 18.7681C18.7074 18.533 18.9343 18.1876 18.9343 17.7521C18.9372 17.5649 18.8909 17.3801 18.8001 17.2156C18.7092 17.0511 18.5767 16.9125 18.4155 16.8131C18.0677 16.576 17.4481 16.4091 16.5569 16.3124L15.4913 16.2151C13.8562 16.0526 12.6279 15.6056 11.8065 14.8741C11.4073 14.5223 11.0907 14.0891 10.8789 13.6046C10.6671 13.12 10.5652 12.5958 10.5802 12.0685C10.5802 11.1252 10.8199 10.3361 11.2994 9.70135C11.8152 9.04576 12.5116 8.55002 13.3054 8.27319C14.2353 7.9325 15.2214 7.76516 16.2135 7.77972C17.9635 7.77972 19.3755 8.15757 20.4495 8.91325C21.0607 9.33155 21.535 9.91606 21.8144 10.5954L23.6789 3.74199C23.8162 3.23815 23.8163 2.70758 23.6792 2.20369C23.5421 1.69979 23.2726 1.24036 22.8978 0.871631C22.5231 0.502903 22.0563 0.237895 21.5445 0.103283C21.0327 -0.0313295 20.4938 -0.0307952 19.9823 0.104832Z" fill="#7E8BA2"/>
</svg>
