<svg id="Layer_1" data-name="Layer 1" xmlns="http://www.w3.org/2000/svg" viewBox="0 0 1109.9 219.1"><defs><style>.cls-1{fill:#fff;}</style></defs><path class="cls-1" d="M342.05,350.65H204.85a8.75,8.75,0,0,0-6.8,2.7,12.93,12.93,0,0,0-3.6,7.7c0,3.6,1.3,9.6,9.8,9.6h66.9c24,0,36.5,18.3,36.6,36.4a39.62,39.62,0,0,1-11.4,26.7,35.56,35.56,0,0,1-25.7,10.5H128.15v33.8a15.51,15.51,0,0,0,15.5,15.5h94a109.47,109.47,0,0,0,109.5-109.5h0A105.17,105.17,0,0,0,342.05,350.65Z" transform="translate(-128.05 -274.45)"/><path class="cls-1" d="M141.65,417.45h128.9a8.75,8.75,0,0,0,6.8-2.7,12.93,12.93,0,0,0,3.6-7.7c0-3.6-1.3-9.6-9.8-9.6h-66.9c-24,0-36.5-18.3-36.6-36.4a39.62,39.62,0,0,1,11.4-26.7,35.56,35.56,0,0,1,25.7-10.5h110.9a6.71,6.71,0,0,0,5.1-11.1,109.43,109.43,0,0,0-83.2-38.3h-94a15.51,15.51,0,0,0-15.5,15.5V404A13.66,13.66,0,0,0,141.65,417.45Z" transform="translate(-128.05 -274.45)"/><path class="cls-1" d="M476.45,451.55c-10.4,0-19-1.3-25.8-4a69.44,69.44,0,0,1-15.9-8.7,44,44,0,0,1-10.5-12.8l5.8-4.2a15.92,15.92,0,0,1,19.3.8h.2a48.39,48.39,0,0,0,11,6.2,43.16,43.16,0,0,0,16,2.8,75.82,75.82,0,0,0,11-.8,36.18,36.18,0,0,0,9.2-2.4A17.45,17.45,0,0,0,503,424a10.75,10.75,0,0,0,2.3-6.8,10.17,10.17,0,0,0-6.2-9.9,37.89,37.89,0,0,0-13.3-3.6l-19.4-1.6a77.11,77.11,0,0,1-14.9-2.9,38.6,38.6,0,0,1-12.1-6.3,31.09,31.09,0,0,1-8.1-10,32.84,32.84,0,0,1-2.9-14.3,30.15,30.15,0,0,1,3.7-14.6,36.17,36.17,0,0,1,10-11,48,48,0,0,1,14.6-6.8,60.72,60.72,0,0,1,17-2.4c9.2,0,16.8,1.3,23.2,4a55.22,55.22,0,0,1,14.9,8.6,52.36,52.36,0,0,1,10.5,12.6l-6.6,4.7a13.41,13.41,0,0,1-16.7-1.1h0a36.51,36.51,0,0,0-9.7-5.7,37.85,37.85,0,0,0-15.4-2.8c-7.1,0-13,1.3-17.8,3.7s-7,6-7,10.7c0,4,1.6,7,4.9,8.9a29.32,29.32,0,0,0,12.6,3.6l19.4,1.6a84.75,84.75,0,0,1,15.9,2.9,43.55,43.55,0,0,1,12.8,6.2,28.67,28.67,0,0,1,8.6,10,31.17,31.17,0,0,1,3.2,14.6,30.21,30.21,0,0,1-4,15.6,33.69,33.69,0,0,1-10.9,11,50.7,50.7,0,0,1-15.9,6.6A92.57,92.57,0,0,1,476.45,451.55Z" transform="translate(-128.05 -274.45)"/><path class="cls-1" d="M583,433a25.17,25.17,0,0,0,12.1-2.9,17.62,17.62,0,0,0,7.8-8.4l18.3,6a35.92,35.92,0,0,1-15.7,18.1,45.62,45.62,0,0,1-22.7,6,46.55,46.55,0,0,1-17.2-3.2,37.46,37.46,0,0,1-13.4-8.9,40.15,40.15,0,0,1-8.9-13.6,50,50,0,0,1,0-35.2,40,40,0,0,1,8.9-13.8,37.4,37.4,0,0,1,13.6-8.9,48.09,48.09,0,0,1,34.5,0,36.5,36.5,0,0,1,13.1,9.2,37.34,37.34,0,0,1,8.1,13.8,50.48,50.48,0,0,1,2.9,17.2c0,1.8-.2,3.7-.3,6h-63.8c.5,4.7,2.9,8.9,7,12.8C571.15,431,576.55,433,583,433Zm21.7-32.7a27.05,27.05,0,0,0-2.1-5.8,20,20,0,0,0-4-5.3,25.09,25.09,0,0,0-6.3-4,25.64,25.64,0,0,0-9.2-1.6,23,23,0,0,0-15.5,5.6,28.11,28.11,0,0,0-4.5,5.3,24.86,24.86,0,0,0-2.4,5.7l44,.1Z" transform="translate(-128.05 -274.45)"/><path class="cls-1" d="M639.65,429.75v-94h0a19.42,19.42,0,0,1,19.4,19.4v94h0A19.55,19.55,0,0,1,639.65,429.75Z" transform="translate(-128.05 -274.45)"/><path class="cls-1" d="M715.35,333.35q2.7,0,8.7.6v9.4a8.66,8.66,0,0,1-8.6,8.6h0c-4.7,0-7.8,1-9.7,2.9s-2.6,5-2.6,9.1v3.4h19.4V386h-19.4v63.2h0a19.42,19.42,0,0,1-19.4-19.4v-43.7h-12.5v-18.6h12.5V361c0-8.9,2.6-15.7,8.1-20.4C697.05,335.75,705,333.35,715.35,333.35Z" transform="translate(-128.05 -274.45)"/><path class="cls-1" d="M768,451.55c-7.3,0-13.4-1.1-18.3-3.2a46.3,46.3,0,0,1-11.7-7.3,41,41,0,0,1-8.1-10.5l7.8-5.7a9.43,9.43,0,0,1,12.6,1.3h0a31.54,31.54,0,0,0,7,4.9c2.9,1.5,6.5,2.1,10.7,2.1,6.3,0,10.7-.8,13.3-2.4s3.9-3.6,3.9-5.8a4.64,4.64,0,0,0-2.8-4.5,24.92,24.92,0,0,0-7.8-1.8l-14.3-1.5a35,35,0,0,1-19.4-7.3c-5.2-4.2-7.9-10.2-7.9-17.8a22.84,22.84,0,0,1,2.9-11.5,25.26,25.26,0,0,1,7.5-8.4,36.8,36.8,0,0,1,10.5-5.2,46.31,46.31,0,0,1,12.3-1.8,40,40,0,0,1,15.9,2.9,39,39,0,0,1,10.7,6.5,38.35,38.35,0,0,1,7.9,9.4l-8.9,6.5a7.54,7.54,0,0,1-10-1h0a18.34,18.34,0,0,0-6-3.9,24.58,24.58,0,0,0-9.7-1.6,21.76,21.76,0,0,0-10.5,2.3c-2.7,1.5-4.2,3.6-4.2,6a5.32,5.32,0,0,0,2.3,4.7c1.5,1,4.2,1.6,7.9,2.1l14.1,1.6c7.9.8,14.6,3.2,19.8,7s8.1,9.4,8.1,17a21.56,21.56,0,0,1-3.1,11.5,27.68,27.68,0,0,1-8.1,8.6,40.5,40.5,0,0,1-11.5,5.3A60.71,60.71,0,0,1,768,451.55Z" transform="translate(-128.05 -274.45)"/><path class="cls-1" d="M847.85,449.15a29.84,29.84,0,0,1-12.8-2.4,19.88,19.88,0,0,1-7.9-6.6,28,28,0,0,1-4-10,61.88,61.88,0,0,1-1.1-12.5v-31.6h-12.5v-18.6h12.5v-24.4h0a19.42,19.42,0,0,1,19.4,19.4v4.9h18.8V386h-18.8v28.7c0,4.7.8,8.4,2.4,11.3s4.7,4.5,9.4,4.5h7.5v5.8a12.93,12.93,0,0,1-12.9,12.9Z" transform="translate(-128.05 -274.45)"/><path class="cls-1" d="M937.55,449.15v-10.7a29.27,29.27,0,0,1-10,8.7c-4.5,2.9-10.4,4.4-17.5,4.4a37.32,37.32,0,0,1-15.2-3.2,38.53,38.53,0,0,1-12.5-8.9,46.12,46.12,0,0,1-8.3-13.8,48,48,0,0,1,8.3-48.8,36.51,36.51,0,0,1,12.5-8.9,38,38,0,0,1,15.2-3.2c7,0,12.6,1.5,17.3,4.4s7.9,5.8,10,8.9h0a10.93,10.93,0,0,1,10.9-10.9h8.6v62.5a19.55,19.55,0,0,1-19.3,19.5ZM914.05,433c6.8,0,12.5-2.3,16.8-6.8s6.6-10.5,6.6-18-2.3-13.4-6.6-17.8a22.53,22.53,0,0,0-16.8-6.8c-6.8,0-12.5,2.3-16.8,6.8s-6.6,10.4-6.6,17.8,2.3,13.4,6.6,18A22.53,22.53,0,0,0,914.05,433Z" transform="translate(-128.05 -274.45)"/><path class="cls-1" d="M1019.25,369.65v16.2h-8.4c-6.6,0-11.7,1.8-14.9,5.3s-4.9,9.4-4.9,17.5v21.1a19.42,19.42,0,0,1-19.4,19.4h0v-81.8h19.4v13.4c2.1-5,5-8.9,8.9-11.3s9.1-3.7,15.4-3.7h0A3.9,3.9,0,0,1,1019.25,369.65Z" transform="translate(-128.05 -274.45)"/><path class="cls-1" d="M1067.35,449.15a29.84,29.84,0,0,1-12.8-2.4,19.88,19.88,0,0,1-7.9-6.6,28,28,0,0,1-4-10,61.88,61.88,0,0,1-1.1-12.5v-31.6h-12.5v-18.6h12.5v-24.4h0a19.42,19.42,0,0,1,19.4,19.4v4.9h18.8V386H1061v28.7c0,4.7.8,8.4,2.4,11.3s4.7,4.5,9.4,4.5h7.5v5.8a12.93,12.93,0,0,1-12.9,12.9Z" transform="translate(-128.05 -274.45)"/><path class="cls-1" d="M1133.55,433a25.17,25.17,0,0,0,12.1-2.9,17.62,17.62,0,0,0,7.8-8.4l18.3,6a35.92,35.92,0,0,1-15.7,18.1,45.62,45.62,0,0,1-22.7,6,46.55,46.55,0,0,1-17.2-3.2,37.46,37.46,0,0,1-13.4-8.9,40.15,40.15,0,0,1-8.9-13.6,50,50,0,0,1,0-35.2,39.08,39.08,0,0,1,8.9-13.8,37.4,37.4,0,0,1,13.6-8.9,48.09,48.09,0,0,1,34.5,0,36.5,36.5,0,0,1,13.1,9.2,37.34,37.34,0,0,1,8.1,13.8,50.48,50.48,0,0,1,2.9,17.2c0,1.8-.2,3.7-.3,6h-63.8c.5,4.7,2.9,8.9,7,12.8C1121.75,431,1127.15,433,1133.55,433Zm21.7-32.7a27.05,27.05,0,0,0-2.1-5.8,20,20,0,0,0-4-5.3,25.09,25.09,0,0,0-6.3-4,25.64,25.64,0,0,0-9.2-1.6,23,23,0,0,0-15.5,5.6,28.11,28.11,0,0,0-4.5,5.3,24.86,24.86,0,0,0-2.4,5.7l44,.1Z" transform="translate(-128.05 -274.45)"/><path class="cls-1" d="M1238,369.65v16.2h-8.4c-6.6,0-11.7,1.8-14.9,5.3s-4.9,9.4-4.9,17.5v21.1a19.42,19.42,0,0,1-19.4,19.4h0v-81.8h19.4v13.4c2.1-5,5-8.9,8.9-11.3s9.1-3.7,15.4-3.7h0A3.9,3.9,0,0,1,1238,369.65Z" transform="translate(-128.05 -274.45)"/></svg>