<svg id="Layer_1" data-name="Layer 1" xmlns="http://www.w3.org/2000/svg" viewBox="0 0 219.1 219.1"><defs><style>.cls-1{fill:#37517e;}</style></defs><path class="cls-1" d="M787.45,350.65H650.25a8.75,8.75,0,0,0-6.8,2.7,12.93,12.93,0,0,0-3.6,7.7c0,3.6,1.3,9.6,9.8,9.6h66.9c24,0,36.5,18.3,36.6,36.4a39.62,39.62,0,0,1-11.4,26.7,35.56,35.56,0,0,1-25.7,10.5H573.55v33.8a15.51,15.51,0,0,0,15.5,15.5h94a109.47,109.47,0,0,0,109.5-109.5h0A105.17,105.17,0,0,0,787.45,350.65Z" transform="translate(-573.45 -274.45)"/><path class="cls-1" d="M587.05,417.45H716a8.75,8.75,0,0,0,6.8-2.7,12.93,12.93,0,0,0,3.6-7.7c0-3.6-1.3-9.6-9.8-9.6h-66.9c-24,0-36.5-18.3-36.6-36.4a39.62,39.62,0,0,1,11.4-26.7,35.56,35.56,0,0,1,25.7-10.5h110.9a6.71,6.71,0,0,0,5.1-11.1,109.43,109.43,0,0,0-83.2-38.3H589a15.51,15.51,0,0,0-15.5,15.5V404A13.66,13.66,0,0,0,587.05,417.45Z" transform="translate(-573.45 -274.45)"/></svg>