<svg width="30" height="30" viewBox="0 0 30 30" fill="none" xmlns="http://www.w3.org/2000/svg">
<path d="M15 0.000488281C6.71053 0.000488281 0 6.71093 0 15.0003C0 23.2897 6.71053 30.0001 15 30.0001C23.2895 30.0001 30 23.2897 30 15.0003C29.9605 6.71093 23.25 0.000488281 15 0.000488281ZM22.2632 21.316C22.2632 21.7502 22.0658 22.066 21.5921 22.066H17.9211V16.5397H19.8158L20.0921 14.1714H17.9211V12.9477C17.9211 12.3161 18.0789 11.803 18.9868 11.803H20.2895V9.90825C19.8947 9.86878 19.2632 9.82931 18.4737 9.82931C16.8158 9.82931 15.5526 10.8556 15.5526 12.7109V14.1714H13.5789V16.5397H15.5526V22.066H8.72368C8.28947 22.066 8.05263 21.7897 8.05263 21.316V8.44775C8.05263 8.01354 8.28947 7.46092 8.72368 7.46092H21.6316C22.0658 7.46092 22.3026 8.01354 22.3026 8.44775V21.316H22.2632Z" fill="#37517E"/>
</svg>
