<svg width="31" height="30" viewBox="0 0 31 30" fill="none" xmlns="http://www.w3.org/2000/svg">
<path fill-rule="evenodd" clip-rule="evenodd" d="M30.9999 14.7304C30.9999 22.8657 24.2439 29.4607 15.9101 29.4607C7.57624 29.4607 0.820312 22.8657 0.820312 14.7304C0.820312 6.59501 7.57624 0 15.9101 0C24.2439 0 30.9999 6.59501 30.9999 14.7304ZM10.7472 7.55792H21.8263C22.7794 7.55792 23.5736 8.33326 23.5736 9.22489V20.0796C23.5736 21.01 22.7794 21.7466 21.8263 21.7466H10.7472C9.79421 21.7466 9 21.01 9 20.0796V9.22489C9 8.29449 9.79421 7.55792 10.7472 7.55792ZM19.8805 9.37996C19.6423 9.37996 19.4437 9.57379 19.4437 9.80639V11.1245C19.4437 11.3571 19.6423 11.5509 19.8805 11.5509H21.2307C21.469 11.5509 21.6675 11.3571 21.6675 11.1245V9.80639C21.6675 9.57379 21.469 9.37996 21.2307 9.37996H19.8805ZM19.126 14.691C19.126 13.1791 17.8553 11.9773 16.3066 11.9773C14.758 11.9773 13.4872 13.1791 13.5269 14.691C13.5269 16.2029 14.758 17.4047 16.3066 17.4047C17.8553 17.4047 19.126 16.2029 19.126 14.691ZM21.7469 20.4285C21.9852 20.4285 22.1837 20.2347 22.1837 20.0021H22.2631V13.3342H20.4365C20.7542 13.6831 20.7939 14.3033 20.7939 14.691C20.7939 17.0558 18.8084 18.9941 16.3463 18.9941C13.8843 18.9941 11.8988 17.0558 11.8988 14.691C11.8988 14.3033 11.9783 13.6831 12.2165 13.3342H10.3898V20.0021C10.3898 20.2347 10.5884 20.4285 10.8267 20.4285H21.7469Z" fill="#37517E"/>
</svg>
