<svg width="52" height="52" viewBox="0 0 52 52" fill="none" xmlns="http://www.w3.org/2000/svg">
<path d="M30.9957 33.1138H7.36731V34.7388H30.9957V33.1138Z" fill="#37517E"/>
<path d="M28.0051 40.2393H7.36731V41.8643H28.0051V40.2393Z" fill="#37517E"/>
<path d="M28.3534 11.7368H20.6346V13.3618H28.3534V11.7368Z" fill="#37517E"/>
<path d="M25.2653 18.8623H20.6346V20.4873H25.2653V18.8623Z" fill="#37517E"/>
<path d="M25.8311 25.9883H7.36731V27.6133H25.8311V25.9883Z" fill="#37517E"/>
<path d="M18.5796 10.1362H6.12V22.0889H18.5796V10.1362ZM16.9546 20.4639H7.745V11.7612H16.9546V20.4639Z" fill="#37517E"/>
<path d="M38.2431 14.0005V12.3755C33.4403 12.3755 29.5333 16.2845 29.5333 21.0888H31.1583C31.1583 17.1803 34.3369 14.0005 38.2431 14.0005Z" fill="#37517E"/>
<path d="M38.6938 25.6637L41.728 27.8679C42.2227 28.2278 42.8881 28.101 43.23 27.6303C43.4339 27.351 43.4887 27.001 43.3816 26.669L42.2215 23.1016L45.2589 20.895C45.635 20.6205 45.7913 20.138 45.6461 19.6949C45.5017 19.2517 45.0915 18.9542 44.6257 18.9542H40.8742L39.715 15.3868C39.5714 14.9429 39.1612 14.6445 38.6938 14.6445C38.2273 14.6445 37.8171 14.9429 37.6734 15.386L36.5142 18.9542H32.7627C32.297 18.9542 31.8867 19.2517 31.7423 19.6949C31.5971 20.138 31.7534 20.6205 32.1311 20.8962L35.1669 23.1016L34.0085 26.6678C33.8998 26.9987 33.9545 27.3494 34.1576 27.6295C34.4933 28.0928 35.1939 28.2059 35.6588 27.8691L38.6938 25.6637ZM34.4599 20.5792H36.9149C37.3814 20.5792 37.7917 20.2813 37.9361 19.8377L38.6946 17.5038L39.4524 19.8373C39.5968 20.2813 40.007 20.5792 40.4736 20.5792H42.9285L40.9425 22.0221C40.5648 22.2962 40.4085 22.7787 40.5521 23.2222L41.3106 25.5562L39.3254 24.1137C39.1405 23.9796 38.9223 23.9089 38.6946 23.9089C38.4677 23.9089 38.2503 23.9788 38.063 24.1137L36.0778 25.5558L36.8363 23.2222C36.9807 22.7767 36.8228 22.2935 36.446 22.0221L34.4599 20.5792Z" fill="#37517E"/>
<path d="M38.6946 8.38367C39.1437 8.38367 39.5071 8.01987 39.5071 7.57117V0.8125C39.5071 0.363797 39.1437 0 38.6946 0H1.61316C1.16407 0 0.800659 0.363797 0.800659 0.8125V43.2434C0.800659 43.4696 0.893642 43.6735 1.04276 43.8208L8.85326 51.7526C9.0156 51.9177 9.23672 52 9.43744 52C9.44373 52 9.44963 51.9966 9.45594 51.9964H38.6946C38.698 51.9964 38.7009 51.9945 38.7043 51.9945C38.741 51.9953 38.7767 52 38.8136 52C41.2463 52 43.226 50.0207 43.226 47.5876V35.5985H41.8216V33.5041C47.2183 32.095 51.0733 27.1738 51.0733 21.5396C51.0733 14.7119 45.5183 9.15728 38.6906 9.15728C31.8669 9.15728 26.3151 14.7119 26.3151 21.5396C26.3151 27.3061 30.2721 32.251 35.8056 33.5614V35.5984H34.4012V47.5876C34.4012 48.6425 34.7743 49.6114 35.3942 50.3714H10.2444V43.2434C10.2444 42.7947 9.88098 42.4309 9.43189 42.4309H2.42566V1.625H37.8821V7.57117C37.8821 8.01987 38.2455 8.38367 38.6946 8.38367ZM38.8136 50.375C37.5612 50.375 36.5115 49.5392 36.1611 48.4001H41.4661C41.1157 49.5392 40.066 50.375 38.8136 50.375ZM41.601 46.7751H36.0262V37.2235H41.601V46.7751ZM27.9401 21.5396C27.9401 15.6081 32.7627 10.7823 38.6906 10.7823C44.6225 10.7823 49.4483 15.6081 49.4483 21.5396C49.4483 27.3478 44.7155 32.3762 38.5198 32.2774C37.9269 32.2677 37.3345 32.22 36.7617 32.1128C31.6503 31.1944 27.9401 26.7478 27.9401 21.5396ZM37.4306 33.8505C37.4509 33.8525 37.4719 33.8513 37.4923 33.8533C37.888 33.892 38.2879 33.9147 38.6906 33.9147C38.7136 33.9147 38.7359 33.9115 38.7589 33.9114C38.9008 33.9106 39.0398 33.8959 39.1815 33.8904C39.4227 33.881 39.9326 33.8566 40.1966 33.8251V35.5985H37.4306V33.8505ZM8.61939 49.1985L3.5555 44.0559H8.61939V49.1985Z" fill="#37517E"/>
</svg>
