<svg width="31" height="30" viewBox="0 0 31 30" fill="none" xmlns="http://www.w3.org/2000/svg">
<path fill-rule="evenodd" clip-rule="evenodd" d="M30.3435 14.7304C30.3435 22.8657 23.5876 29.4607 15.2538 29.4607C6.91996 29.4607 0.164062 22.8657 0.164062 14.7304C0.164062 6.59501 6.91996 0 15.2538 0C23.5876 0 30.3435 6.59501 30.3435 14.7304ZM8.54297 12.4823H11.402V21.3202H8.54297V12.4823ZM19.224 12.4046C17.5959 12.4046 16.5635 13.2574 16.3649 13.8776V12.4821H13.1484C13.1881 13.2187 13.1484 21.3204 13.1484 21.3204H16.3649V16.5524C16.3649 16.281 16.3649 16.0097 16.4443 15.8159C16.6826 15.2732 17.1194 14.7305 17.993 14.7305C19.1049 14.7305 19.6211 15.5445 19.6211 16.7462V21.3204H22.8773V16.3973C22.8376 13.6838 21.2492 12.4046 19.224 12.4046ZM8.1875 9.88568C8.1875 8.99442 8.86257 8.33567 9.93474 8.33567C10.9672 8.33567 11.6423 8.99442 11.682 9.84693C11.682 10.7382 11.0069 11.3969 9.93474 11.3969H9.89503C8.86257 11.3969 8.1875 10.7382 8.1875 9.88568Z" fill="#37517E"/>
</svg>
