<svg width="32" height="30" viewBox="0 0 32 30" fill="none" xmlns="http://www.w3.org/2000/svg">
<path fill-rule="evenodd" clip-rule="evenodd" d="M31.1687 14.7304C31.1687 22.8657 24.4128 29.4607 16.079 29.4607C7.74515 29.4607 0.989258 22.8657 0.989258 14.7304C0.989258 6.59501 7.74515 0 16.079 0C24.4128 0 31.1687 6.59501 31.1687 14.7304ZM20.9614 9.5367C21.6762 9.42041 22.3115 9.14908 22.9072 8.80022C22.6689 9.5367 22.1924 10.1181 21.6762 10.5445C22.2718 10.5058 22.8675 10.3119 23.4234 10.0794C23.0263 10.6996 22.5101 11.2422 21.9144 11.6686V12.0562C21.9144 16.0875 18.8171 20.739 13.218 20.739C11.4707 20.739 9.88236 20.2351 8.53223 19.3823C8.77049 19.4211 9.00874 19.4211 9.247 19.4211C10.6766 19.4211 11.987 18.9172 13.0194 18.1032C11.6693 18.0644 10.5574 17.1729 10.1603 15.9712C10.3191 16.01 10.5177 16.01 10.7162 16.01H10.7163C10.9942 16.01 11.2722 15.9712 11.5105 15.8937C10.0809 15.6224 9.04845 14.382 9.04845 12.909V12.8703C9.48526 13.1028 9.92206 13.2579 10.4383 13.2579C9.6441 12.6764 9.08817 11.7461 9.08817 10.6996C9.08817 10.1181 9.2073 9.61423 9.48527 9.14908C10.9942 10.9709 13.218 12.2113 15.7594 12.3276L15.7594 12.3275C15.7197 12.0949 15.68 11.8624 15.68 11.6299C15.68 9.92432 17.0698 8.56765 18.7376 8.56765C19.6113 8.56765 20.4055 8.95527 20.9614 9.5367Z" fill="#37517E"/>
</svg>
